<svg xmlns="http://www.w3.org/2000/svg" width="270" height="270" viewBox="0 0 270 270"><circle class="st0" fill="#00B422" cx="135" cy="135" r="135"/><path fill="#FFF" class="st1" d="M197 149.5V92c0-5.5-4.5-10-10-10H83c-5.5 0-10 4.5-10 10v68c0 1.1.9 2 2 2s2-.9 2-2V92c0-3.3 2.7-6 6-6h104c3.3 0 6 2.7 6 6v68c0 1.1.9 2 2 2s2-.9 2-2v-10.5zM121 168H64c-2.2 0-4 1.8-4 4v6c0 5.5 4.5 10 10 10h130c5.5 0 10-4.5 10-10v-6c0-2.2-1.8-4-4-4h-64v4c0 1.1-.9 2-2 2h-10c-1.1 0-2-.9-2-2v-4h-7zm25 4h59c.6 0 1 .5 1 1v5c0 3.3-2.7 6-6 6H70c-3.3 0-6-2.7-6-6v-5c0-.6.4-1 1-1h59c0 3.3 2.7 6 6 6h10c3.3 0 6-2.7 6-6zm-34.4-52.5c1.3 0 2.4-1 2.4-2.3 0-1.3-1.1-2.3-2.4-2.3-1.3 0-2.4 1-2.4 2.3 0 1.3 1.1 2.3 2.4 2.3zm2.7 1.6h-11.2v-.7c0-1.4 1.4-1.4 2.2-1.4.9 0 1.2.1 1.2.1v-3.8s-.8-.1-1.8-.1c-2.3 0-6.7.6-6.7 5.4v.6h-2v3.5h2.1v7.4h-1.9v3.5h9.2V132h-2.2v-7.4h6.1v7.4h-1.9v3.5h8.9V132h-1.9v-10.9zm18.6.2H125v3.4h1.3l-1.7 5.1c-.3.9-.4 1.9-.4 1.9h-.1s-.1-1-.4-1.9l-1.7-5.1h1.3v-3.4h-7.9v3.4h1.7l4.1 10.8h5.9l4.1-10.8h1.7v-3.4zm14.6 6.6c0-4-2.5-7-6.9-7-4.8 0-7.7 3.3-7.7 7.5 0 3.8 2.9 7.6 8.2 7.6 4 0 6.4-2 6.4-2l-1.8-3.4s-2 1.4-4.2 1.4c-1.6 0-3.1-.8-3.5-2.7h9.4s.1-1 .1-1.4zm-9.4-1.2c.3-1.1 1-2.1 2.4-2.1 1.1 0 1.9 1 1.9 2.1h-4.3zm30.7-2.2c-.1 0 0-.3 0-.7v-.8c0-1.3-.7-1.8-2.1-1.8h-4.6v3.5h1.4c.4 0 .6.2.6.6v6.8h-2v3.5h8.8V132h-2v-2.1c0-2.6 1.3-4.3 4-4.3.6 0 1 .1 1 .1v-4.8s-.3-.1-.6-.1c-2 .1-3.9 1.7-4.5 3.7zm-12.7 0c-.1 0 0-.3 0-.7v-.8c0-1.3-.7-1.8-2.1-1.8h-4.6v3.5h1.4c.4 0 .6.2.6.6v6.8h-2v3.5h8.8V132h-2v-2.1c0-2.6 1.3-4.3 4-4.3.6 0 1 .1 1 .1v-4.8s-.3-.1-.6-.1c-2.1.1-3.9 1.7-4.5 3.7z"/></svg>